PathFileType	4	(X/Y/Z)	E:\Qualisys_Data\Carbon_Farble_Plate\Data\Amateur_Runner\S2\T1\S2T1V11_c3d.trc
DataRate	CameraRate	NumFrames	NumMarkers	Units	OrigDataRate	OrigDataStartFrame	OrigNumFrames
200.000000	200.000000	4	39	mm	200.000000	287	328
Frame#	Time	LSHO			RSHO			LICST			RICST			LASIS			LHEEL			RASIS			LTROC			RTROC			SACR			LTH1			LSK4			LTH2			LTH3			RHM5			LSK2			LTH4			RTH1			LTOE			RTH2			RTH3			RTH4			LLEP			RLEP			LSK1			LSK3			RSK1			LHM5			RSK2			LFT1			RSK3			RSK4			LLME			RLME			RTOE			RHEEL			RFT1			RFT2			LFT2			
		X1	Y1	Z1	X2	Y2	Z2	X3	Y3	Z3	X4	Y4	Z4	X5	Y5	Z5	X6	Y6	Z6	X7	Y7	Z7	X8	Y8	Z8	X9	Y9	Z9	X10	Y10	Z10	X11	Y11	Z11	X12	Y12	Z12	X13	Y13	Z13	X14	Y14	Z14	X15	Y15	Z15	X16	Y16	Z16	X17	Y17	Z17	X18	Y18	Z18	X19	Y19	Z19	X20	Y20	Z20	X21	Y21	Z21	X22	Y22	Z22	X23	Y23	Z23	X24	Y24	Z24	X25	Y25	Z25	X26	Y26	Z26	X27	Y27	Z27	X28	Y28	Z28	X29	Y29	Z29	X30	Y30	Z30	X31	Y31	Z31	X32	Y32	Z32	X33	Y33	Z33	X34	Y34	Z34	X35	Y35	Z35	X36	Y36	Z36	X37	Y37	Z37	X38	Y38	Z38	X39	Y39	Z39	

288	1.435	1761.317260742188	1452.93359375	-452.6322326660156	1719.593872070312	1444.590209960938	-138.0139312744141	1688.471801757812	990.8914794921876	-434.9405822753906	1693.661254882812	992.549560546875	-132.7115478515625	1740.620849609375	940.118408203125	-420.2256774902344	1300.560180664062	179.7620849609375	-310.6707153320312	1753.296020507812	946.8111572265624	-160.8905487060547	1600.22119140625	875.8336791992188	-423.0188293457031	1623.191650390625	890.1044921875	-116.1967163085938	1598.697875976562	1033.436767578125	-289.2076416015625	1685.201904296875	624.9487915039062	-429.3146057128906	1431.296142578125	325.6232299804688	-400.2911071777344	1603.736450195312	639.3571166992188	-433.0239868164062	1666.518920898438	525.9685668945312	-405.2601318359375	1690.22021484375	126.3641815185547	-126.849853515625	1489.398803710938	404.962646484375	-419.3451843261719	1582.405029296875	543.4628295898438	-408.5440673828125	1862.000732421875	686.63037109375	-117.0539398193359	1489.53271484375	52.45378875732422	-304.1326293945312	1791.148193359375	654.9083251953125	-106.9765701293945	1899.599975585938	593.7482299804688	-136.5173034667969	1825.365600585938	565.3067626953125	-124.5186080932617	1606.36572265625	487.5678100585938	-408.5717468261719	1855.428100585938	540.826904296875	-126.6078872680664	1553.169799804688	360.7297668457031	-409.0999755859375	1495.10498046875	279.1380004882812	-393.3084106445312	1821.678100585938	426.3085632324219	-127.2781219482422	1439.579956054688	52.31086730957031	-370.8972778320312	1760.4189453125	478.8802490234375	-121.3086318969727	1297.549926757812	154.9425506591797	-279.490478515625	1754.941528320312	349.3436584472656	-138.2146759033203	1696.833618164062	403.5036926269531	-134.2351684570312	1362.884643554688	156.1699066162109	-363.1195068359375	1607.618896484375	232.7186279296875	-165.7399444580078	1753.86279296875	115.2087326049805	-183.8827667236328	1551.928588867188	248.4975433349609	-225.2798156738281	1554.607788085938	217.3034820556641	-256.2218322753906	1536.048461914062	225.7644348144531	-201.9029235839844	1287.842651367188	152.2956085205078	-332.5304260253906
289	1.44	1778.710327148438	1457.711669921875	-451.1198120117188	1734.625122070312	1448.617431640625	-138.0957183837891	1705.354858398438	995.00634765625	-434.0395202636719	1710.220092773438	997.6682739257812	-132.5047149658203	1757.607788085938	943.6898803710938	-419.5816955566406	1310.32861328125	188.1396942138672	-312.223388671875	1769.535278320312	951.7464599609376	-160.5430450439453	1616.687133789062	880.8088989257812	-422.9158020019531	1640.063842773438	895.14306640625	-115.117431640625	1615.376342773438	1037.990844726562	-289.2938232421875	1697.508544921875	628.8980102539062	-429.607421875	1438.656494140625	331.982421875	-402.3145141601562	1616.335327148438	644.5972290039062	-434.0521545410156	1676.88525390625	530.3251953125	-406.2416076660156	1724.618286132812	123.5395126342773	-126.0108489990234	1497.367431640625	411.1054992675781	-421.1130981445312	1593.382080078125	549.0233764648438	-409.8893432617188	1879.638305664062	691.375732421875	-117.4583206176758	1491.737670898438	51.85312652587891	-304.9823608398438	1808.7822265625	660.012451171875	-106.9936599731445	1916.736572265625	598.3374633789062	-136.9082794189453	1842.4169921875	570.3777465820312	-124.5801391601562	1615.5888671875	492.8316345214844	-409.4331359863281	1871.898315429688	545.0466918945312	-126.7526016235352	1560.998168945312	366.8727416992188	-411.1426086425781	1503.236694335938	285.190673828125	-396.0077819824219	1841.644165039062	428.6285095214844	-126.8806610107422	1441.918579101562	52.91141128540039	-371.7980041503906	1778.786376953125	478.25146484375	-121.4784164428711	1306.36083984375	163.7548828125	-281.0054016113281	1778.99462890625	348.62353515625	-138.1616058349609	1718.329345703125	400.1071166992188	-134.5902099609375	1371.317749023438	161.2582702636719	-365.2652893066406	1636.978637695312	225.4924011230469	-166.0012054443359	1789.15283203125	115.5398025512695	-181.8614959716797	1581.805053710938	237.8997497558594	-226.0369262695312	1586.18408203125	206.7102203369141	-257.495361328125	1566.37060546875	214.5885009765625	-203.2896728515625	1296.111328125	161.40087890625	-334.3743896484375
290	1.445	1796.231201171875	1462.19970703125	-449.6591796875	1749.796997070312	1452.73486328125	-137.6799468994141	1722.664916992188	998.9846801757812	-433.5516662597656	1726.225341796875	1002.581909179688	-132.5343322753906	1776.384643554688	947.2462768554688	-418.8239440917969	1320.655639648438	196.7594299316406	-314.3100891113281	1786.123779296875	956.5449829101562	-160.078125	1633.244018554688	885.3811645507812	-422.8211669921875	1656.885986328125	900.078857421875	-114.1024932861328	1632.3486328125	1042.020141601562	-289.0510864257812	1709.665405273438	632.6118774414062	-430.1274108886719	1447.356811523438	337.6998291015625	-404.1119995117188	1628.84619140625	649.8572387695312	-434.9233703613281	1687.278198242188	534.0234375	-406.9248046875	1758.7021484375	121.3942413330078	-124.0131454467773	1505.85498046875	417.3292236328125	-422.0353393554688	1603.977416992188	555.0045166015625	-411.3279418945312	1896.723876953125	696.031494140625	-117.731315612793	1494.433959960938	51.61409378051758	-305.4700927734375	1825.945922851562	665.045654296875	-106.8512802124023	1933.692749023438	602.8181762695312	-137.0376129150391	1859.160400390625	574.7078247070312	-124.6152420043945	1624.824096679688	498.4912719726562	-410.8714904785156	1888.522583007812	549.3873901367188	-126.5692138671875	1569.25634765625	373.203857421875	-412.8914184570312	1511.690795898438	290.9664001464844	-398.4358215332031	1862.005859375	430.8612670898438	-126.3862991333008	1444.572509765625	54.0783805847168	-372.6684265136719	1796.984741210938	477.9818725585938	-121.5665664672852	1315.465209960938	173.0646362304688	-283.1294555664062	1802.933837890625	348.2548217773438	-137.7759399414062	1739.9228515625	396.9322814941406	-135.3361206054688	1379.699951171875	165.8427734375	-367.5536804199219	1666.462768554688	217.9969482421875	-166.6598663330078	1824.582275390625	116.3365249633789	-179.4820404052734	1611.4140625	227.8274383544922	-227.4157257080078	1617.872802734375	196.4844512939453	-257.9735107421875	1597.3212890625	203.4779510498047	-204.8431549072266	1304.930786132812	170.3979797363281	-335.9550476074219
291	1.45	1813.745239257812	1466.532348632812	-447.9689331054688	1764.999755859375	1456.411743164062	-137.2570648193359	1739.697387695312	1002.617004394531	-432.9118347167969	1742.62841796875	1007.356750488281	-132.1297760009766	1793.46875	950.8367919921876	-417.7312927246094	1331.5673828125	205.29052734375	-316.8313293457031	1802.365600585938	960.9287719726562	-159.5382537841797	1649.4072265625	890.010498046875	-423.0571594238281	1674.119018554688	904.9464721679688	-113.5816879272461	1649.047607421875	1046.198486328125	-289.3823852539062	1722.009033203125	636.5932006835938	-430.913818359375	1456.019653320312	343.4828796386719	-406.0079956054688	1641.173706054688	655.0968627929688	-435.5694885253906	1697.340698242188	538.4402465820312	-407.7159118652344	1792.297485351562	119.1850509643555	-122.928955078125	1514.435180664062	423.4668884277344	-423.1617126464844	1614.691772460938	560.6871337890625	-411.6648559570312	1913.748901367188	700.0098266601562	-118.0180358886719	1497.178100585938	50.72690963745117	-305.9252014160156	1842.782470703125	669.464111328125	-106.9952087402344	1949.944702148438	606.5748901367188	-137.1344299316406	1875.480712890625	579.4486083984375	-124.5078735351562	1633.692016601562	504.0928649902344	-410.8374938964844	1905.079833984375	553.0020141601562	-127.0396728515625	1577.880981445312	379.3314819335938	-414.7212829589844	1520.435180664062	297.0164184570312	-400.6919555664062	1882.056884765625	432.77685546875	-125.5358352661133	1447.81884765625	54.95676422119141	-373.6757202148438	1814.520385742188	476.9216613769531	-121.8613510131836	1326.044921875	182.3324584960938	-285.0288696289062	1826.682250976562	347.9112854003906	-137.1347503662109	1761.8740234375	393.7994689941406	-135.5811004638672	1388.43994140625	170.9648895263672	-369.86865234375	1696.473022460938	211.3609008789062	-166.8522796630859	1859.2958984375	117.5011672973633	-177.2223663330078	1639.958984375	216.6489410400391	-229.1012573242188	1649.924926757812	186.6639099121094	-258.8367004394531	1627.959350585938	192.9956817626953	-205.2451477050781	1314.939575195312	179.8453979492188	-338.3543395996094
